ISO-10303-21;
HEADER;
FILE_DESCRIPTION(('Placa 100x80x15 con 4 agujeros D6 pasantes'),'2;1');
FILE_NAME('placa_4_agujeros.step','2026-07-02T00:00:00',('cad2gcode'),(''),'','','');
FILE_SCHEMA(('AUTOMOTIVE_DESIGN { 1 0 10303 214 1 1 1 1 }'));
ENDSEC;
DATA;
/* vertices de la placa (caja envolvente) */
#1=CARTESIAN_POINT('',(0.,0.,0.));
#2=CARTESIAN_POINT('',(100.,0.,0.));
#3=CARTESIAN_POINT('',(100.,80.,0.));
#4=CARTESIAN_POINT('',(0.,80.,0.));
#5=CARTESIAN_POINT('',(0.,0.,15.));
#6=CARTESIAN_POINT('',(100.,0.,15.));
#7=CARTESIAN_POINT('',(100.,80.,15.));
#8=CARTESIAN_POINT('',(0.,80.,15.));
#10=DIRECTION('',(0.,0.,1.));
#11=DIRECTION('',(1.,0.,0.));
/* agujero 1: X20 Y20 */
#20=CARTESIAN_POINT('',(20.,20.,0.));
#21=AXIS2_PLACEMENT_3D('',#20,#10,#11);
#22=CYLINDRICAL_SURFACE('',#21,3.);
#23=CARTESIAN_POINT('',(20.,20.,0.));
#24=AXIS2_PLACEMENT_3D('',#23,#10,#11);
#25=CIRCLE('',#24,3.);
#26=CARTESIAN_POINT('',(20.,20.,15.));
#27=AXIS2_PLACEMENT_3D('',#26,#10,#11);
#28=CIRCLE('',#27,3.);
/* agujero 2: X80 Y20 */
#30=CARTESIAN_POINT('',(80.,20.,0.));
#31=AXIS2_PLACEMENT_3D('',#30,#10,#11);
#32=CYLINDRICAL_SURFACE('',#31,3.);
#33=CARTESIAN_POINT('',(80.,20.,0.));
#34=AXIS2_PLACEMENT_3D('',#33,#10,#11);
#35=CIRCLE('',#34,3.);
#36=CARTESIAN_POINT('',(80.,20.,15.));
#37=AXIS2_PLACEMENT_3D('',#36,#10,#11);
#38=CIRCLE('',#37,3.);
/* agujero 3: X20 Y60 */
#40=CARTESIAN_POINT('',(20.,60.,0.));
#41=AXIS2_PLACEMENT_3D('',#40,#10,#11);
#42=CYLINDRICAL_SURFACE('',#41,3.);
#43=CARTESIAN_POINT('',(20.,60.,0.));
#44=AXIS2_PLACEMENT_3D('',#43,#10,#11);
#45=CIRCLE('',#44,3.);
#46=CARTESIAN_POINT('',(20.,60.,15.));
#47=AXIS2_PLACEMENT_3D('',#46,#10,#11);
#48=CIRCLE('',#47,3.);
/* agujero 4: X80 Y60 */
#50=CARTESIAN_POINT('',(80.,60.,0.));
#51=AXIS2_PLACEMENT_3D('',#50,#10,#11);
#52=CYLINDRICAL_SURFACE('',#51,3.);
#53=CARTESIAN_POINT('',(80.,60.,0.));
#54=AXIS2_PLACEMENT_3D('',#53,#10,#11);
#55=CIRCLE('',#54,3.);
#56=CARTESIAN_POINT('',(80.,60.,15.));
#57=AXIS2_PLACEMENT_3D('',#56,#10,#11);
#58=CIRCLE('',#57,3.);
ENDSEC;
END-ISO-10303-21;
